<?xml version="1.0" encoding="utf-8"?>
<!-- Generator: Adobe Illustrator 25.0.1, SVG Export Plug-In . SVG Version: 6.00 Build 0)  -->
<svg version="1.0" id="Layer_1" xmlns="http://www.w3.org/2000/svg" xmlns:xlink="http://www.w3.org/1999/xlink" x="0px" y="0px"
	 viewBox="0 0 891 645.1" style="enable-background:new 0 0 891 645.1;" xml:space="preserve">
<style type="text/css">
	.st0{fill-rule:evenodd;clip-rule:evenodd;fill:#5A5942;}
	.st1{fill:#5A5942;}
</style>
<g>
	<g>
		<path class="st0" d="M226.6,306.9c-10.7,0-21.6,0-32.8,0c3.7-25.6,13.7-47.3,38.4-58.9c29.8-14,68,1.3,78.2,31.1
			c6.6,19.1,1.8,36.6-8.8,53c-9.3,14.3-22.2,25.1-34.8,36.2c-4.6,4-9.1,8.1-13.3,13c1.6,0,3.1,0,4.7,0c22.3,0,44.6-0.1,66.8,0
			c1.6,0,3.9,0.8,4.8,2c8.5,12.2,18.8,22.3,31.7,29.8c0.3,0.2,0.7,0.4,0.7,1.3c-55.8,0-111.6,0-167.6,0
			c-0.8-13.9-0.4-27.6,11.2-37.9c10.4-9.2,21.3-17.9,31.8-27c9.3-8.1,18.5-16.2,27.4-24.7c5.9-5.6,10.6-12.2,13.2-20
			c4.8-14.6-3.5-27.2-18.9-28.6c-12.7-1.1-22.6,4.6-27.9,16.5C229.6,296.9,228.4,301.6,226.6,306.9z"/>
		<path class="st0" d="M718,381.2c-18.8,0-37.7,0-56.5,0c-1.6,0-3.1,0-4.7,0c4.2-4.9,8.7-9,13.3-13c12.6-11.1,25.6-22,34.8-36.2
			c10.6-16.3,15.3-33.8,8.8-53c-10.2-29.8-48.5-45.1-78.2-31.1c-24.7,11.6-34.7,33.3-38.4,58.9h32.8c1.8-5.3,3-10,4.9-14.3
			c5.3-11.8,15.2-17.6,27.9-16.5c15.3,1.3,23.7,14,18.9,28.6c-2.6,7.8-7.3,14.4-13.2,20c-8.9,8.5-18.1,16.6-27.4,24.7
			c-10.5,9.1-21.4,17.8-31.8,27c-11.6,10.2-12,23.9-11.2,37.9H718V381.2z"/>
		<g>
			<path class="st1" d="M601.4,381.5h-47.1c3.2-2.6,5.8-4.7,8.5-6.8c15.8-12.5,30.6-26,43.2-41.8c5.8-7.3,9.5-15.3,11.2-23.5H594
				l0.4-2.9c2.2-15.6,6.6-28.3,13.4-38.4c-0.9-1.3-1.8-2.5-2.9-3.7c-28-33.6-81.3-27.3-101.7,12.3c-4.9,9.4-8.4,19.5-12.6,29.3
				c-10.2,24.2-25.1,45.1-44.8,62.4c-16.8,14.7-36.2,17.8-56.5,8.5c-20-9.1-30.4-25.5-30.7-47.4c-0.4-25.6,19.1-48.1,43.8-51.7
				c26.3-3.9,50.2,10.9,58.2,35.8c1.5,4.7,3.2,9.5,5,15c1.3-1.8,2.3-2.9,2.9-4.1c5.2-10.5,10.2-21.1,15.4-31.6
				c1.7-3.4,1.1-5.9-0.9-9c-23-36.2-67.1-48.2-103.3-34.1c-37.4,14.5-60.9,55.2-53,94.6c6.6,32.9,25.6,55.6,57.8,66.2
				c27.6,9,53.8,5,76.8-12.6c26-20,44.8-46.1,58.2-76c4.3-9.7,8-19.8,12.5-29.4c5.8-12.2,16-17.8,29.3-16.5
				c9.7,0.9,16.9,5.8,21.2,14.6c4,8.1,1.8,15.4-3.2,22.2c-1.4,1.9-2.7,3.8-4.4,5.4c-11.7,10.9-23.4,21.8-35.3,32.4
				c-9.5,8.4-19.5,16.2-29.1,24.6c-12.3,10.7-13.6,25-12.6,40.2c2.2,0,4.2,0,6.3,0c30.3-0.2,60.6-0.4,90.9-0.6l0-0.5
				C594.7,403.6,594.8,391.6,601.4,381.5z"/>
		</g>
	</g>
</g>
</svg>
